<?xml version="1.0" encoding="UTF-8" standalone="no"?>
<!-- Created with Inkscape (http://www.inkscape.org/) -->

<svg
   version="1.1"
   id="svg1942"
   width="369.33334"
   height="540"
   viewBox="0 0 369.33334 540"
   sodipodi:docname="logo6.svg"
   inkscape:version="1.2.2 (b0a8486541, 2022-12-01)"
   xmlns:inkscape="http://www.inkscape.org/namespaces/inkscape"
   xmlns:sodipodi="http://sodipodi.sourceforge.net/DTD/sodipodi-0.dtd"
   xmlns="http://www.w3.org/2000/svg"
   xmlns:svg="http://www.w3.org/2000/svg">
  <defs
     id="defs1946" />
  <sodipodi:namedview
     id="namedview1944"
     pagecolor="#ffffff"
     bordercolor="#000000"
     borderopacity="0.25"
     inkscape:showpageshadow="2"
     inkscape:pageopacity="0.0"
     inkscape:pagecheckerboard="0"
     inkscape:deskcolor="#d1d1d1"
     showgrid="false"
     inkscape:zoom="0.3"
     inkscape:cx="-311.66667"
     inkscape:cy="196.66667"
     inkscape:window-width="1280"
     inkscape:window-height="715"
     inkscape:window-x="0"
     inkscape:window-y="24"
     inkscape:window-maximized="1"
     inkscape:current-layer="g1948" />
  <g
     inkscape:groupmode="layer"
     inkscape:label="Image"
     id="g1948">
    <path
       style="fill:#000000;stroke:none;stroke-width:0.840228"
       d="m 70.796052,167.38194 c 4.519787,12.38464 43.332018,12.93729 55.194408,12.54663 -3.71778,4.13479 -7.78492,8.16182 -10.39067,12.64264 -1.24442,2.13992 -2.215,4.37167 -2.43643,6.654 -1.79634,18.51016 34.69168,23.64841 48.90027,35.93174 h 1.06098 l -2.12195,-4.65784 c 17.72147,7.96354 29.73598,22.56512 23.52819,36.59714 -3.93622,8.89976 -13.56564,16.42944 -17.9411,25.28529 -5.54254,11.21798 -5.47039,23.6923 -3.43651,35.26632 1.24666,7.0925 4.97387,13.86363 10.88031,19.96205 5.94148,6.13568 14.094,11.03171 11.37154,18.63126 4.57174,-1.2363 5.78444,-3.89993 7.74408,-6.60746 2.79247,-3.8593 6.01573,-7.71068 9.45224,-11.35839 9.38537,-9.96043 20.52987,-20.59288 20.8715,-32.60472 0.26208,-9.17723 -6.90906,-17.75624 -12.47495,-25.95068 -5.05237,-7.43987 -9.20079,-16.07879 -12.0548,-23.95449 -5.26244,-14.52571 4.45184,-33.38055 32.08389,-33.9355 l 7.42685,-1.9962 c -0.16093,-1.57749 0.0775,-1.30649 2.12196,-0.6654 7.14779,-3.8234 15.33853,-6.85299 21.45718,-11.39834 13.20702,-9.81068 14.16084,-23.11009 6.12818,-34.51443 26.12654,1.37674 50.67011,-3.51199 63.0708,-19.29666 5.87037,-7.47246 2.64393,-15.23131 -1.88005,-22.62369 -4.53888,-7.41548 -9.6358,-13.74527 -22.9956,-15.30422 l -4.51908,0.47766 c 8.28726,2.13016 17.57014,5.51255 20.43371,10.83417 l 6.72363,7.04894 c 3.98417,3.06288 1.97739,5.07769 1.7642,3.59749 2.43067,15.27762 -13.2463,28.46859 -37.13419,32.36317 -6.79553,1.10791 -14.35181,2.03215 -21.1495,0.4445 -5.66347,-1.32349 -10.43639,-2.53616 -14.536,-5.1911 -37.82314,-10.7635 -52.37763,-25.22505 -60.31278,-47.36601 -20.971,27.47495 -35.40012,47.80856 -84.36761,50.9302 -8.77969,0.24562 -19.518419,-1.44821 -27.345989,-4.12708 -32.684474,-11.18611 -21.709317,-40.60098 10.370567,-49.02206 14.683502,-3.85448 41.071652,-1.34855 46.862992,9.46368 2.17436,4.05941 -1.54617,8.07285 -5.95123,10.92232 -9.24618,5.98112 -23.89545,9.18288 -32.63704,1.69271 -4.45674,0 -5.985336,-5.24317 -3.6774,-7.42974 2.84798,-2.69823 10.34325,-4.89054 15.56102,-4.43605 13.9391,1.21424 7.46948,11.88584 -4.24391,9.75926 l 2.12196,-2.66162 c -12.52696,0 -2.19081,8.00645 6.36586,5.32324 5.5838,-1.75095 11.42405,-7.86488 7.42682,-11.31185 -2.46305,-2.12403 -5.99514,-2.1044 -9.54878,-2.6616 -2.02031,-0.31673 -4.82182,-1.21004 -7.42684,-0.66541 -4.8894,1.02212 -12.9248,3.02501 -14.853666,6.65403 -3.506512,6.59746 9.991436,12.71204 18.036606,13.97345 8.27232,1.29701 19.82868,-2.43193 25.46341,-5.32322 4.62977,-2.3757 5.10744,-6.00013 8.4878,-8.65023 l 1.06099,0.66537 c -0.94375,-3.99893 -1.99581,-7.88266 -6.27387,-11.0821 -11.3883,-8.5169 -37.10965,-9.89654 -52.094658,-4.6935 -25.656749,8.90834 -30.633066,28.90318 -18.097898,44.68617 M 297.91019,154.31157 c 0.8268,-1.24831 0.92345,-2.19483 1.03843,-3.59684 -4.35228,-8.37567 -18.90493,-3.81529 -14.29801,0.1114 1.05357,0.82684 2.22726,2.15018 4.73016,3.15186 v -0.66539 l -2.59462,-3.05631 c 0.71241,-2.40859 2.59848,-3.04035 6.17664,-2.51236 9.02263,4.18096 -4.14229,9.99146 -11.84386,7.87996 -12.1885,-3.75877 -11.98796,-14.89576 -4.45292,-20.77826 6.3701,-4.97308 20.28087,-6.81156 29.91347,-7.96202 -12.80811,-1.10396 -32.6009,3.34332 -37.36575,11.16905 -4.09752,6.72807 -0.40988,16.38322 10.82089,19.32442 5.1975,1.36116 12.35689,0.59707 12.5468,-0.20417 m -95.50559,-18.49919 4.14168,8.07236 1.72582,3.19644 c 5.88519,7.1822 18.19715,14.93535 25.73886,18.98279 9.28672,4.914 18.75924,4.62615 27.98125,9.63793 18.03767,9.80271 13.47758,30.07352 -1.60739,40.2595 -7.49368,5.06104 -17.83076,8.54974 -28.27289,10.55063 -7.75785,1.48647 -16.7231,1.8598 -22.87676,5.49486 -7.09687,4.19338 -8.46128,10.46812 -9.51165,16.25645 -0.9761,5.37311 -1.54158,11.4283 -0.0236,16.77811 3.56064,12.54748 13.94337,24.16143 19.15489,36.45607 1.93306,4.56066 5.39822,9.19786 5.46612,13.97344 0.139,9.80603 -9.82464,16.43343 -17.57825,24.10819 -4.51974,4.47349 -6.98441,9.74082 -10.70418,14.48513 h -1.06097 c -19.01373,-19.24542 -28.25483,-40.01927 -19.39779,-62.54779 3.42905,-8.72475 12.83886,-15.21776 17.4244,-23.41618 3.96065,-7.08187 2.47314,-15.29294 0.0997,-22.49524 -7.32606,-22.22911 -53.16914,-21.05733 -67.21698,-39.93547 -8.23604,-11.06827 1.07445,-26.3925 20.28575,-29.26769 v -0.6654 l -6.36586,0.6654 v -0.6654 c 31.14245,-11.07667 44.15415,-20.77888 62.59765,-39.92413 m 131.20772,13.52981 0.70662,0.22188 -0.70662,-0.22188 m -183.7167,28.88427 c -5.1398,1.64086 -7.32678,5.52548 -8.58053,8.82456 -4.26979,11.2373 11.75804,27.01931 32.31584,20.16232 12.38902,-4.13282 16.40799,-16.834 8.0284,-23.81006 -4.70118,-3.91525 -12.06436,-5.49758 -19.57055,-5.96798 -4.00581,-0.25102 -8.49724,-0.38927 -12.19316,0.79116 m 60.99678,7.49109 c -4.28422,0.64277 -5.92766,4.10684 -6.75841,6.654 -1.88535,5.78702 0.44562,13.83771 8.89628,17.15808 4.76484,1.87243 11.77896,3.63242 17.40955,3.96313 4.77972,0.28135 10.12914,-1.03272 14.44522,-2.23711 21.33091,-5.94866 14.71889,-26.89153 -4.2853,-31.9506 -10.07398,-2.68226 -26.36633,-0.98946 -29.70734,6.4125 m -55.0864,-6.02123 c 10.09148,-1.58034 22.12507,1.20571 26.4008,7.41324 4.72665,6.8623 -1.6806,17.4282 -13.79268,19.18886 -15.73471,2.28701 -24.71184,-6.32995 -24.26909,-15.09264 0.25462,-5.04174 3.05742,-10.16203 11.66097,-11.50946 m 2.03761,2.69422 c 13.02773,0.23028 14.75817,6.34194 14.85365,13.30803 h -1.06096 c -0.174,-1.56637 -0.28436,-3.14602 -0.98776,-4.66449 -0.46155,-0.99607 -1.11405,-1.97356 -2.12939,-2.80133 -3.31768,-2.7055 -9.65818,-2.62968 -12.26712,0.51967 -2.65329,3.20261 0.54142,7.21697 5.63697,8.48854 2.44989,0.61151 5.05248,0.50571 7.62534,0.45383 -8.2858,4.26321 -18.72633,1.05796 -18.87296,-5.97664 -0.0745,-3.56392 3.98544,-6.82503 6.14125,-9.99303 -5.77458,3.15533 -10.21454,6.89158 -8.55805,11.97126 1.96334,6.02122 12.5766,11.60529 21.78736,7.16572 5.45023,-2.62769 9.12227,-7.47381 7.86076,-11.78894 -1.71877,-5.88481 -11.46702,-9.89187 -20.02909,-6.68262 m 64.71954,2.6616 -4.24389,-1.9962 c 3.73247,-1.28958 7.36317,-2.2617 11.70362,-2.31827 16.81541,-0.22039 30.29402,11.58997 23.34464,21.57434 -2.56121,3.67966 -8.0231,6.25411 -13.83725,7.71534 -10.21614,2.56778 -24.43428,0.2255 -30.23781,-5.94139 -7.26769,-7.72465 -0.78407,-17.55662 13.27069,-19.03382 m 8.47081,0.14982 c -24.81516,0.58824 -22.33989,24.12283 1.25407,23.28843 21.31185,-0.75324 19.23551,-23.7748 -1.25407,-23.28843 m -68.22372,3.45545 c 4.68401,0.27805 5.14341,5.77902 0.0941,5.78033 -5.47686,0.003 -5.6635,-6.11103 -0.0941,-5.78033 m 66.14317,-0.77254 c 16.95014,-1.26029 19.98349,16.74219 3.09487,17.98714 -17.77561,1.31086 -21.56541,-16.61442 -3.09487,-17.98714 m -70.04883,5.81764 c 8.51008,-1.64023 2.56884,-5.74377 0,0 m 69.20959,-4.01174 c -13.13169,1.62026 -7.72285,15.09001 4.89003,13.56491 13.14657,-1.58965 7.43957,-15.08601 -4.89003,-13.56491 m 1.06627,2.95306 c 7.66238,-0.50106 10.03685,7.47912 1.81747,7.90831 -7.39289,0.38593 -9.54775,-7.40326 -1.81747,-7.90831 m -0.0127,2.09403 c -2.75427,1.06863 -0.0456,3.68831 2.73839,2.86057 3.14474,-0.9349 0.15489,-3.98311 -2.73839,-2.86057 m -84.05581,4.95326 -1.06098,0.66537 1.06098,-0.66537 m 80.6342,98.4795 1.06097,0.6654 -1.06097,-0.6654 M 94.514667,363.3582 94.8684,363.80135 94.514667,363.3582 m 117.061403,1.10854 0.70662,0.22219 -0.70662,-0.22219 m -7.78119,0.88766 0.35437,0.44317 z"
       id="path2069"
       sodipodi:nodetypes="ccscccccsccccccccccccccccccccscccccccccsccccccccccccccccccccccccccscccccccscccccccccccccccccccccccccccccccccccccccccccccccccccccccscccccccccccccccscccccccccccccccccccccc" />
  </g>
</svg>
