<?xml version="1.0" encoding="UTF-8" standalone="no"?>
<!-- Created with Inkscape (http://www.inkscape.org/) -->

<svg
   version="1.1"
   id="svg2"
   width="1648.5082"
   height="1516.8055"
   viewBox="0 0 1648.5082 1516.8055"
   sodipodi:docname="photo_2025-11-01_14-42-27.jpg"
   inkscape:export-filename="../../pensieroaporetico/public/site-title.svg"
   inkscape:export-xdpi="96"
   inkscape:export-ydpi="96"
   xmlns:inkscape="http://www.inkscape.org/namespaces/inkscape"
   xmlns:sodipodi="http://sodipodi.sourceforge.net/DTD/sodipodi-0.dtd"
   xmlns="http://www.w3.org/2000/svg"
   xmlns:svg="http://www.w3.org/2000/svg">
  <defs
     id="defs6" />
  <sodipodi:namedview
     id="namedview4"
     pagecolor="#ffffff"
     bordercolor="#000000"
     borderopacity="0.25"
     inkscape:showpageshadow="2"
     inkscape:pageopacity="0.0"
     inkscape:pagecheckerboard="0"
     inkscape:deskcolor="#d1d1d1"
     showgrid="false" />
  <g
     inkscape:groupmode="layer"
     inkscape:label="Image"
     id="g8"
     transform="translate(366.75319,-91.638064)">
    <path
       style="fill:#ff3333;fill-opacity:1;stroke-width:3.70284"
       d="m 342.12042,1530.1341 c -8.16705,-3.62 -16.1478,-10.3272 -17.73489,-14.905 -6.93659,-20.0081 -10.41125,-118.6366 -8.80681,-249.9848 l 1.73134,-141.7349 -33.8015,-5.8596 c -96.03589,-16.6482 -245.193304,-67.6007 -449.27703,-153.47393 -136.81425,-57.56789 -173.0764,-89.6661 -169.98622,-150.4665 1.73244,-34.08184 12.73763,-60.30796 37.31426,-88.92049 30.84999,-35.91615 51.07278,-50.74728 113.64329,-83.34456 124.5924,-64.90871 303.95714,-113.93241 488.42267,-133.49488 57.84522,-6.13446 419.85235,-6.23909 533.52435,-0.15408 l 26.81627,1.43548 0.63656,-21.07158 C 867.76622,383.45593 829.38282,302.15478 750.26538,245.97777 660.36439,182.14402 528.90878,158.62148 365.01547,177.04155 231.01123,192.10242 85.586633,249.16323 25.972271,310.07331 -2.1399565,338.79656 -7.3756316,359.3157 9.3210531,375.33133 c 6.3059689,6.04878 16.7223439,12.80066 23.1474659,15.00426 14.53362,4.98445 14.888559,15.37079 0.775061,22.6803 -12.081284,6.25702 -13.839766,6.38922 -34.8471185,2.6202 C -35.563024,409.54332 -64.01739,379.1303 -62.933961,350.084 -60.045402,272.64463 115.47125,174.39048 311.72892,140.34781 c 153.18854,-26.57194 296.67771,-19.20898 411.84464,21.13331 49.50385,17.34085 111.25434,50.51362 143.19347,76.9243 78.85769,65.20797 118.96587,157.93914 115.07721,266.06098 -2.33779,65.0019 -18.9381,73.36688 -125.09156,63.03468 -29.58955,-2.88004 -86.3378,-3.52593 -250.66402,-2.85299 -201.22043,0.82397 -223.19014,1.50812 -298.18377,9.28505 -24.21365,2.51102 -103.16739,17.78367 -142.25258,27.5171 -20.74168,5.1653 -38.69703,9.39563 -39.90079,9.40073 -1.2038,0.005 -14.94279,4.28225 -30.531086,9.50479 -15.58828,5.22253 -30.042881,9.50272 -32.12134,9.51151 -8.976145,0.038 -125.333505,48.53953 -164.648734,68.631 -68.4192,34.96457 -102.97326,74.58043 -105.55525,121.018 -2.09938,37.75713 24.49451,56.02369 154.265731,105.96094 148.117051,56.99691 317.480269,111.88909 369.965709,119.90939 l 12.29221,1.8784 1.88262,-146.17868 1.88256,-146.1788 11.4965,-4.20807 c 22.86784,-8.37026 45.72619,-3.20215 51.72295,11.69416 3.20162,7.95294 11.02174,153.75254 12.71259,237.01447 0.65818,32.40992 1.87352,59.31482 2.70074,59.78872 2.53553,1.4523 126.71173,0.021 145.8393,-1.6809 258.50126,-23.0023 418.42363,-68.00812 485.03048,-136.49878 16.3912,-16.85483 17.5417,-19.634 16.4653,-39.7827 -0.9634,-18.03739 -4.0729,-24.97151 -18.5836,-41.44177 -35.2277,-39.98504 -80.48275,-64.00914 -157.3397,-83.52532 -54.74958,-13.90243 -112.70149,-20.85798 -204.59671,-24.55631 -83.68044,-3.3677 -221.75162,-3.65241 -273.8837,-0.56479 -36.31991,2.15113 -40.17063,1.89439 -50.05796,-3.33757 -8.15174,-4.31353 -10.24418,-8.29131 -8.75648,-16.64623 3.93163,-22.07992 37.17248,-26.3455 211.28253,-27.11256 166.24387,-0.73249 264.96332,5.57316 348.05466,22.2314 158.38216,31.75261 265.08686,106.14831 262.32656,182.89706 -2.1051,58.52789 -75.8433,116.32897 -206.41826,161.80457 -114.1778,39.7649 -255.55046,65.004 -429.07281,76.6016 -33.85811,2.2631 -75.13119,4.1825 -91.71793,4.2655 l -30.15779,0.1516 1.14841,70.312 c 0.63166,38.6717 1.76401,75.7339 2.51636,82.3605 0.7524,6.6268 2.25197,25.9073 3.33248,42.8458 4.76466,74.6947 13.47605,151.7896 17.78855,157.4266 7.65543,10.0066 4.68803,22.5942 -8.01769,34.011 -20.46117,18.3853 -57.58562,23.2741 -84.87832,11.1774 z"
       id="path596" />
    <path
       style="fill:#ff3333;fill-opacity:1;stroke-width:4.01481"
       d="m 391.61004,1601.8087 c -9.02572,-3.7634 -17.91524,-10.8422 -19.75436,-15.7303 -8.03813,-21.365 -14.01239,-127.1347 -15.14227,-268.0853 l -1.21921,-152.0966 -37.15481,-5.7884 C 212.77616,1143.6621 48.269777,1091.1935 -177.1703,1002.0676 -328.30148,942.31923 -368.72845,908.415 -366.68003,843.13512 c 1.14849,-36.59283 12.62699,-64.89379 38.91915,-95.95535 33.00339,-38.99033 54.82932,-55.20126 122.65218,-91.09846 135.051059,-71.47963 330.44867,-126.72358 532.0813,-150.43305 63.22854,-7.43488 459.76712,-12.88579 584.41664,-8.0334 l 29.40598,1.14469 0.23407,-22.61762 C 942.19293,363.75638 898.36073,277.09235 810.46095,217.98538 710.58059,150.82232 566.06766,127.52301 386.94463,149.70338 240.4881,167.83877 82.445023,231.20541 18.4827,297.43657 c -30.162591,31.23248 -35.446654,53.3252 -16.8051245,70.26255 7.0404985,6.3969 18.5989755,13.48755 25.6854625,15.75709 16.029628,5.13361 16.646748,16.27215 1.34757,24.32284 -13.096231,6.89148 -15.019567,7.05926 -38.1137711,3.32519 C -46.736153,405.06796 -78.573492,372.85668 -78.025222,341.67618 -76.563429,258.5469 113.53679,150.5391 327.76817,111.11956 494.98603,80.35071 652.32525,86.134525 779.36539,127.72039 c 54.60748,17.87539 122.97789,52.55664 158.54445,80.42231 87.81386,68.80037 133.78666,167.70252 131.90386,283.76656 -1.1318,69.77669 -19.1319,78.9965 -135.63914,69.4763 -32.47557,-2.6537 -94.65152,-2.50981 -274.63889,0.6356 -220.39779,3.85153 -244.44828,4.90957 -326.42499,14.35961 -26.4683,3.05121 -112.61813,20.60199 -155.2179,31.62165 -22.60677,5.84787 -42.18201,10.65149 -43.50048,10.6747 -1.31852,0.023 -16.27413,4.81491 -33.23467,10.6482 -16.960517,5.83328 -32.69993,10.63876 -34.976472,10.67886 -9.831584,0.17313 -136.222691,53.92763 -178.846748,76.06409 -74.17745,38.52338 -111.15694,81.53783 -112.96442,131.39997 -1.46965,40.54155 28.0627,59.74803 171.311249,111.41319 163.499651,58.96907 350.226001,115.36667 407.894601,123.19787 l 13.50612,1.8341 -1.15118,-156.86665 -1.15125,-156.86674 12.50071,-4.6845 c 24.86533,-9.3179 50.01786,-4.11 56.91414,11.78419 3.68188,8.4857 15.45306,164.80249 19.13553,254.1114 1.43341,34.7637 3.35614,63.6128 4.27268,64.1091 2.80934,1.5209 138.79989,-1.8462 159.71473,-3.9542 282.65539,-28.4921 456.84438,-79.1384 528.29958,-153.60606 17.5842,-18.32572 18.7834,-21.32451 17.1614,-42.9267 -1.4518,-19.33856 -5.0102,-26.73251 -21.2672,-44.18988 -39.4673,-42.38146 -89.5676,-67.49014 -174.18548,-87.2961 -60.27804,-14.10885 -123.91119,-20.71701 -224.65406,-23.32983 -91.73719,-2.37922 -242.98597,-0.6485 -300.02334,3.4331 -39.73736,2.84361 -43.96105,2.62494 -54.90661,-2.84274 -9.02419,-4.50788 -11.40368,-8.74489 -9.95774,-17.73104 3.82133,-23.74808 40.13942,-28.81496 230.84188,-32.20563 182.08665,-3.23757 290.36207,2.07207 381.74621,18.71975 174.18894,31.73246 292.70824,109.9799 291.37184,192.3663 -1.0194,62.82712 -80.5212,125.93083 -222.5526,176.64833 -124.19587,44.3488 -278.49999,73.5132 -468.3206,88.5157 -37.03826,2.9274 -82.20641,5.5954 -100.37362,5.9291 l -33.03137,0.6074 2.80361,75.4226 c 1.54202,41.4826 3.59712,81.2308 4.56691,88.3296 0.96985,7.099 3.03632,27.7633 4.59225,45.9212 6.86117,80.0716 18.09834,162.6602 22.94616,168.6448 8.60569,10.6234 5.63191,24.1727 -8.03491,36.6095 -22.00891,20.0278 -62.56738,25.8205 -92.72959,13.2441 z"
       id="path596-3" />
    <ellipse
       style="opacity:0.97;fill:#ff3333;fill-opacity:1;stroke-width:5.852"
       id="path650"
       cx="648.61346"
       cy="332.28348"
       rx="62.194237"
       ry="51.932468" />
  </g>
</svg>
