<?xml version="1.0" encoding="UTF-8" standalone="no"?>
<!-- Created with Inkscape (http://www.inkscape.org/) -->

<svg
   version="1.1"
   id="svg2"
   width="1648.5082"
   height="1516.8055"
   viewBox="0 0 1648.5082 1516.8055"
   sodipodi:docname="site-title.svg"
   inkscape:export-filename="../../pensieroaporetico/public/site-title.svg"
   inkscape:export-xdpi="96"
   inkscape:export-ydpi="96"
   inkscape:version="1.2.2 (b0a8486541, 2022-12-01)"
   xmlns:inkscape="http://www.inkscape.org/namespaces/inkscape"
   xmlns:sodipodi="http://sodipodi.sourceforge.net/DTD/sodipodi-0.dtd"
   xmlns="http://www.w3.org/2000/svg"
   xmlns:svg="http://www.w3.org/2000/svg">
  <defs
     id="defs6" />
  <sodipodi:namedview
     id="namedview4"
     pagecolor="#ffffff"
     bordercolor="#000000"
     borderopacity="0.25"
     inkscape:showpageshadow="2"
     inkscape:pageopacity="0.0"
     inkscape:pagecheckerboard="0"
     inkscape:deskcolor="#d1d1d1"
     showgrid="false"
     inkscape:zoom="0.15559015"
     inkscape:cx="257.08569"
     inkscape:cy="758.40277"
     inkscape:window-width="1280"
     inkscape:window-height="715"
     inkscape:window-x="0"
     inkscape:window-y="24"
     inkscape:window-maximized="1"
     inkscape:current-layer="g8" />
  <g
     inkscape:groupmode="layer"
     inkscape:label="Image"
     id="g8"
     transform="translate(366.75319,-91.638064)">
    <path
       style="fill:#782121;fill-opacity:1;stroke-width:3.57545;opacity:0.99"
       d="m 392.39541,1533.7644 c -7.91097,-3.4844 -15.64148,-9.9405 -17.1788,-14.3468 -6.71909,-19.2589 -10.0848,-114.1941 -8.53067,-240.6238 l 1.67705,-136.4275 -32.74163,-5.6401 C 242.59675,1120.7014 98.116272,1071.6569 -99.568261,988.99926 -232.0926,933.58708 -267.21773,902.69083 -264.22444,844.16719 c 1.67812,-32.8056 12.33823,-58.04965 36.14424,-85.59074 29.88267,-34.57122 49.47136,-48.84698 110.07993,-80.22361 120.685712,-62.47812 294.42634,-109.66606 473.10782,-128.49599 56.03144,-5.90474 406.68758,-6.00545 516.79531,-0.14831 l 25.97542,1.38173 0.6166,-20.28253 C 901.5592,430.02517 864.37934,351.76846 787.74268,297.69507 700.66061,236.25166 573.32688,213.60996 414.57256,231.34026 284.77012,245.83716 143.90542,300.76125 86.16031,359.39047 c -27.230747,27.64766 -32.302255,47.39844 -16.129107,62.81434 6.108241,5.82228 16.198003,12.32132 22.421661,14.44241 14.077906,4.7978 14.421716,14.7952 0.750758,21.831 -11.702466,6.02272 -13.40581,6.14997 -33.754461,2.52208 C 26.554499,455.13569 -1.0076596,425.86152 0.04179767,397.9029 2.8397838,323.36335 172.85298,228.78846 362.95685,196.02057 c 148.38521,-25.57692 287.37517,-18.48968 398.93096,20.34194 47.95162,16.6915 107.76588,48.62207 138.70353,74.04377 76.38505,62.76617 115.23566,152.02489 111.46886,256.09796 -2.2645,62.56782 -18.34426,70.61956 -121.1692,60.67426 -28.66175,-2.77219 -83.63062,-3.39389 -242.80427,-2.74615 -194.91102,0.79311 -216.19185,1.45164 -288.834,8.93735 -23.45442,2.417 -99.9325,17.11774 -137.79215,26.48669 -20.09131,4.97188 -37.48366,9.0438 -38.64967,9.04871 -1.16606,0.005 -14.47425,4.12189 -29.57377,9.14887 -15.09949,5.02696 -29.10086,9.14687 -31.11415,9.15534 -8.69469,0.0366 -121.40357723,46.7219 -159.486049,66.06101 -66.273871,33.65528 -99.744461,71.78767 -102.245491,116.48632 -2.03355,36.34326 23.72647,53.92581 149.4286198,101.99309 C 153.2928,1006.6123 317.34552,1059.449 368.18524,1067.1689 l 11.90678,1.8081 1.82358,-140.70481 1.82354,-140.70494 11.13601,-4.05049 c 22.15081,-8.05682 44.29242,-3.08224 50.10114,11.25626 3.10123,7.65513 10.67615,147.99506 12.31398,228.13918 0.63754,31.1962 1.81478,57.0937 2.61606,57.5498 2.45602,1.3979 122.73859,0.02 141.2664,-1.6179 250.39577,-22.141 405.30367,-65.4615 469.82197,-131.38745 15.8773,-16.22368 16.9917,-18.89878 15.949,-38.29298 -0.9331,-17.36196 -3.9451,-24.03642 -18.0009,-39.88993 C 1034.8197,830.786 990.98369,807.66151 916.53665,788.87614 863.50378,775.49431 807.369,768.79922 718.35522,765.23938 c -81.05658,-3.24159 -214.79844,-3.51564 -265.29588,-0.54364 -35.18107,2.07057 -38.91105,1.82345 -48.48836,-3.21259 -7.89613,-4.15201 -9.92296,-7.98083 -8.48191,-16.02289 3.80835,-21.25311 36.00691,-25.35896 204.65761,-26.0973 161.03118,-0.70506 256.65521,5.36447 337.14116,21.39892 153.41596,30.56359 256.77486,102.17344 254.10116,176.04823 -2.0391,56.33623 -73.4652,111.97289 -199.94591,155.74559 -110.59767,38.2758 -247.53749,62.5698 -415.61892,73.7331 -32.79646,2.1784 -72.7754,4.0259 -88.84205,4.1058 l -29.21217,0.1459 1.1124,67.6791 c 0.61186,37.2236 1.7087,72.8979 2.43746,79.2764 0.72881,6.3787 2.18136,24.9372 3.22799,41.2414 4.61526,71.8976 13.0535,146.1056 17.23077,151.5315 7.41539,9.6319 4.54104,21.7482 -7.76629,32.7374 -19.81959,17.6969 -55.77998,22.4026 -82.21689,10.7589 z"
       id="path596" />
    <path
       style="fill:#782121;fill-opacity:1;stroke-width:3.87668"
       d="m 403.63545,1620.6949 c -8.74272,-3.6225 -17.3535,-10.4362 -19.13495,-15.1413 -7.78609,-20.565 -13.57302,-122.374 -14.66747,-258.0465 l -1.18098,-146.4011 -35.9898,-5.5717 c -102.25322,-15.8301 -261.601381,-66.334 -479.97262,-152.1224 -146.39236,-57.51111 -185.55171,-90.14573 -183.56752,-152.98112 1.11248,-35.22256 12.23106,-62.46376 37.69881,-92.36217 31.96855,-37.53029 53.11011,-53.13418 118.80634,-87.68716 130.816431,-68.80297 320.08721,-121.97824 515.3975,-144.79988 61.24596,-7.15647 445.35078,-12.40326 566.0918,-7.73257 l 28.48396,1.10182 0.22676,-21.77067 C 936.95439,429.00303 894.49658,345.58425 809.35294,288.69062 712.60446,224.04257 572.62287,201.61574 399.11632,222.96553 257.25204,240.42182 104.16453,301.41561 42.207785,365.16665 c -29.21682,30.06294 -34.3351948,51.32837 -16.278183,67.63148 6.81974,6.15736 18.015785,12.98249 24.880073,15.16704 15.52701,4.94138 16.124779,15.66282 1.305316,23.41204 -12.685588,6.63342 -14.54862,6.79492 -36.918685,3.20067 -36.162387,-5.81024 -67.001444,-36.81533 -66.470365,-66.82823 1.415954,-80.01639 185.555439,-183.97969 393.069449,-221.92311 161.9746,-29.61666 314.38031,-24.04943 437.43708,15.97919 52.89524,17.20602 119.12184,50.58858 153.57312,77.41078 85.06041,66.22405 129.59161,161.42267 127.76791,273.14054 -1.0963,67.16381 -18.532,76.03837 -131.38599,66.87466 -31.4573,-2.55432 -91.68373,-2.41582 -266.0274,0.6118 -213.48709,3.70731 -236.78346,4.72573 -316.18973,13.8219 -25.63837,2.93695 -109.08691,19.83052 -150.35093,30.43753 -21.89792,5.62889 -40.85937,10.25263 -42.13649,10.27497 -1.27718,0.0221 -15.76385,4.63461 -32.19258,10.24947 -16.4287,5.61484 -31.674597,10.24037 -33.879755,10.27897 -9.523304,0.16665 -131.951329,51.90824 -173.238881,73.21577 -71.851564,37.08082 -107.671534,78.48453 -109.422334,126.47952 -1.42357,39.02342 27.18277,57.51072 165.939657,107.24116 158.372993,56.761 339.244413,111.0467 395.104773,118.5846 l 13.08262,1.7654 -1.11508,-150.99262 -1.11515,-150.99261 12.10874,-4.50908 c 24.08566,-8.96898 48.44951,-3.9561 55.12955,11.34291 3.56644,8.16795 14.96852,158.63126 18.53553,244.5959 1.38846,33.4619 3.2509,61.2307 4.1387,61.7085 2.72125,1.4639 134.44775,-1.7771 154.70675,-3.8062 273.79254,-27.4251 442.5196,-76.1749 511.7343,-147.85413 17.0328,-17.63947 18.1944,-20.52597 16.6233,-41.31922 -1.4063,-18.6144 -4.8531,-25.73147 -20.6004,-42.53513 -38.2297,-40.79443 -86.7591,-64.96288 -168.72366,-84.02718 -58.38794,-13.58052 -120.02588,-19.94123 -217.60981,-22.45621 -88.86072,-2.29013 -235.367,-0.62422 -290.61594,3.30454 -38.49137,2.73713 -42.58262,2.52665 -53.18498,-2.73629 -8.74123,-4.33907 -11.0461,-8.41742 -9.6455,-17.06707 3.70151,-22.8588 38.88082,-27.73595 223.60362,-30.99965 176.37724,-3.11633 281.25759,1.99448 369.77637,18.01876 168.727,30.5442 283.53,105.86156 282.2356,185.16289 -0.9875,60.47449 -77.9964,121.21519 -215.5744,170.03359 -120.30152,42.6881 -269.7673,70.7604 -453.63594,85.2011 -35.87694,2.8177 -79.62876,5.3858 -97.22634,5.707 l -31.99565,0.5847 2.7157,72.5983 c 1.49367,39.9292 3.48433,78.189 4.42371,85.022 0.93944,6.8331 2.94111,26.7236 4.44826,44.2016 6.64603,77.0732 17.53085,156.5692 22.22666,162.3297 8.33584,10.2255 5.45528,23.2675 -7.78297,35.2386 -21.3188,19.2778 -60.60553,24.8536 -89.82198,12.7481 z"
       id="path596-3" />
    <ellipse
       style="opacity:0.97;fill:#782121;fill-opacity:1;stroke-width:5.65065"
       id="path650"
       cx="725.20294"
       cy="364.12997"
       rx="60.244091"
       ry="49.987785" />
  </g>
</svg>
