<?xml version="1.0" encoding="UTF-8" standalone="no"?>
<!-- Created with Inkscape (http://www.inkscape.org/) -->

<svg
   version="1.1"
   id="svg69"
   width="388"
   height="234"
   viewBox="0 0 388 234"
   sodipodi:docname="site-title.svg"
   inkscape:version="1.2.2 (b0a8486541, 2022-12-01)"
   xmlns:inkscape="http://www.inkscape.org/namespaces/inkscape"
   xmlns:sodipodi="http://sodipodi.sourceforge.net/DTD/sodipodi-0.dtd"
   xmlns="http://www.w3.org/2000/svg"
   xmlns:svg="http://www.w3.org/2000/svg">
  <defs
     id="defs73" />
  <sodipodi:namedview
     id="namedview71"
     pagecolor="#ffffff"
     bordercolor="#000000"
     borderopacity="0.25"
     inkscape:showpageshadow="2"
     inkscape:pageopacity="0.0"
     inkscape:pagecheckerboard="0"
     inkscape:deskcolor="#d1d1d1"
     showgrid="false"
     inkscape:zoom="1.982906"
     inkscape:cx="240.30388"
     inkscape:cy="106.40948"
     inkscape:window-width="1280"
     inkscape:window-height="715"
     inkscape:window-x="0"
     inkscape:window-y="24"
     inkscape:window-maximized="1"
     inkscape:current-layer="g75" />
  <g
     inkscape:groupmode="layer"
     inkscape:label="Image"
     id="g75">
    <path
       style="fill:#d40000;stroke-width:1.45745"
       d="m -57.162286,294.16125 v -17.41174 l 7.889529,-0.0532 c 9.789241,-0.066 14.557667,3.14854 14.557667,9.81382 0,7.0322 -4.025409,10.42885 -12.426456,10.48551 l -7.092844,0.0478 v 7.2549 c 0,3.99019 -0.658778,7.25933 -1.463948,7.26476 -0.894635,0.006 -1.463948,-6.76136 -1.463948,-17.40188 z m 18.765219,-5.6625 c 0.643364,-6.64756 -1.805422,-8.96166 -9.428812,-8.91025 l -6.408511,0.0432 v 7.33072 7.33072 l 7.685724,-0.4904 c 7.528486,-0.48039 7.695257,-0.5889 8.151599,-5.30402 z m 13.441629,5.44528 v -17.41174 l 10.247635,-0.0691 c 5.8557906,-0.0395 10.2476315,0.55273 10.2476315,1.38187 0,0.8061 -3.9038603,1.47731 -8.7836855,1.51022 l -8.783685,0.0592 v 6.45357 6.45359 l 7.685725,0.48108 7.6857245,0.48107 -7.6857245,0.32025 -7.685725,0.32022 v 7.2549 7.25489 l 8.783685,-0.0592 c 4.8798252,-0.0329 8.7836855,0.58564 8.7836855,1.39175 0,0.82913 -4.3918409,1.48059 -10.2476315,1.52008 l -10.247635,0.0691 z m 29.2789544,-0.19748 c 0,-14.09966 0.3966853,-17.41441 2.0853967,-17.4258 1.1469702,-0.008 5.8440199,5.83704 10.4378919,12.98841 4.593871,7.15136 8.925654,12.99862 9.626182,12.99389 0.700531,-0.005 1.273692,-5.88507 1.273692,-13.06741 0,-7.73855 0.596422,-13.06283 1.463948,-13.06868 0.894634,-0.006 1.463948,6.76136 1.463948,17.40187 0,12.96609 -0.46723,17.41297 -1.829935,17.41656 -1.006465,0.003 -5.666923,-6.16036 -10.356577,-13.69555 -4.689652,-7.5352 -9.1363929,-14.06977 -9.8816457,-14.52124 -0.7964089,-0.48247 -1.3550069,5.19606 -1.3550069,13.77454 0,8.76297 -0.5850051,14.59936 -1.4639477,14.60529 -0.8946346,0.006 -1.4639463,-6.76136 -1.4639463,-17.40188 z m 40.0423746,15.70042 c -3.41234,-1.34159 -5.670161,-4.05228 -4.416921,-5.30288 0.431143,-0.43023 2.290635,0.2536 4.132201,1.51964 3.945501,2.71245 11.620599,2.97785 14.115619,0.4881 3.671075,-3.66331 2.039012,-8.35807 -3.733066,-10.73846 -12.319311,-5.08045 -12.792208,-5.45769 -13.290759,-10.60244 -0.580082,-5.98608 2.441786,-8.74112 9.640948,-8.78968 5.793209,-0.0391 11.072757,2.35194 9.78226,4.43022 -0.588207,0.94727 -1.588208,0.89596 -2.866734,-0.1471 -1.079882,-0.88098 -4.479811,-1.37947 -7.555393,-1.10773 -4.557318,0.40267 -5.680478,1.11352 -6.070334,3.84188 -0.637538,4.46174 1.764555,7.03376 7.534716,8.06774 7.292263,1.30673 11.242995,4.67399 11.242995,9.58253 0,8.21771 -9.028178,12.4882 -18.515532,8.75818 z m 28.763172,-16.16448 c 0,-10.64051 0.569305,-17.41558 1.463941,-17.42162 0.894637,-0.006 1.463955,6.76136 1.463955,17.40187 0,10.64052 -0.569318,17.41559 -1.463955,17.42162 -0.894636,0.006 -1.463941,-6.76135 -1.463941,-17.40187 z m 14.639465,-0.0987 v -17.41174 l 10.247638,-0.0691 c 5.855804,-0.0395 10.247654,0.55273 10.247654,1.38187 0,0.8061 -3.90389,1.47731 -8.783708,1.51022 l -8.783678,0.0592 v 6.45357 6.45359 l 7.685719,0.48107 7.685727,0.48108 -7.685727,0.32024 -7.685719,0.32023 v 7.2549 7.25489 l 8.783678,-0.0592 c 4.879818,-0.0329 8.783708,0.58564 8.783708,1.39175 0,0.82913 -4.39185,1.48059 -10.247654,1.52008 l -10.247638,0.0691 z m 29.278972,-0.19748 v -17.41174 l 8.11823,-0.0547 c 6.66747,-0.045 8.76045,0.57739 11.7116,3.48251 4.51355,4.44313 4.54076,7.39884 0.10428,11.34532 -3.41911,3.04156 -3.43609,3.17738 -0.84734,6.78808 3.04358,4.2451 5.21797,13.09841 3.22031,13.11188 -0.74168,0.005 -2.17963,-2.7603 -3.1954,-6.14511 -2.53692,-8.4536 -3.95671,-9.76742 -10.5074,-9.72324 l -5.6765,0.0383 v 7.98038 c 0,4.38922 -0.65878,7.98483 -1.46396,7.99026 -0.89462,0.006 -1.46393,-6.76135 -1.46393,-17.40187 z m 16.71566,-2.44444 c 1.46151,-0.56572 2.31566,-2.65506 2.31566,-5.66429 0,-5.4096 -1.77804,-6.51741 -10.36739,-6.45948 l -5.73604,0.0387 v 6.5294 6.52941 l 5.73604,-0.0387 c 3.15486,-0.0213 6.77812,-0.44204 8.05173,-0.93504 z m 20.9184,16.67772 c -8.29945,-6.41452 -8.72817,-21.57416 -0.79868,-28.24075 4.67579,-3.9311 12.33879,-4.93285 17.41177,-2.27616 6.41939,3.36184 9.35487,16.91857 5.48969,25.35264 -3.51508,7.67013 -15.29842,10.42327 -22.10278,5.16427 z m 16.73581,-2.86395 c 2.95703,-2.3932 3.45605,-4.09113 3.45605,-11.75934 0,-7.6682 -0.49902,-9.3594 -3.45605,-11.71271 -4.72555,-3.76073 -12.48803,-3.51645 -16.25021,0.51138 -4.18624,4.48183 -4.15881,16.74673 0.0491,22.02058 3.71123,4.65125 11.08666,5.07922 16.20098,0.94009 z m 26.20573,4.41074 c 0.0322,-0.59873 2.58199,-8.28799 5.66627,-17.0872 7.46912,-21.3088 9.06826,-21.39009 16.46151,-0.83653 3.00684,8.35913 5.50337,16.01433 5.54785,17.01157 0.16241,3.64082 -2.30728,1.6965 -4.11163,-3.23697 -1.80356,-4.93133 -2.06117,-5.06452 -9.6962,-5.01302 -7.66585,0.0517 -7.88172,0.16798 -9.53443,5.14273 -1.45746,4.38684 -4.50499,7.21359 -4.33337,4.01942 z m 20.07469,-13.91968 c -0.37147,-0.99506 -1.81246,-5.22945 -3.20219,-9.40978 -1.38974,-4.18033 -2.75031,-7.59909 -3.02347,-7.59724 -0.27319,0.002 -1.63376,3.43895 -3.0235,7.63803 -1.38972,4.19907 -2.8307,8.4529 -3.20219,9.45297 -0.48001,1.29235 1.32061,1.8048 6.22569,1.77172 4.90504,-0.0331 6.70567,-0.56982 6.22566,-1.8557 z m 16.46551,-2.65029 v -17.41174 l 8.11826,-0.0548 c 6.66747,-0.045 8.76043,0.57739 11.71158,3.48251 7.81782,7.6958 2.66773,16.73421 -9.58221,16.81683 l -7.31972,0.0494 v 7.2549 c 0,3.99019 -0.65877,7.25933 -1.46395,7.26476 -0.89463,0.006 -1.46396,-6.76136 -1.46396,-17.40188 z m 19.27037,-3.69798 c 1.31349,-2.8661 1.1547,-4.31024 -0.79712,-7.24951 -2.00954,-3.02622 -3.58765,-3.66268 -8.99132,-3.62624 l -6.55402,0.0442 v 7.25489 7.25489 l 7.35111,-0.0496 c 6.38791,-0.0431 7.56605,-0.51854 8.99135,-3.62865 z m 18.95341,18.82708 c -4.86213,-2.63819 -7.36801,-7.71343 -7.429,-15.0461 -0.0587,-7.06433 3.01417,-14.01545 7.18677,-16.25693 9.04715,-4.86001 21.01889,1.13676 22.77144,11.40643 2.61448,15.32013 -10.16441,26.60578 -22.52921,19.8966 z m 15.48194,-4.1364 c 4.64729,-4.35859 4.88887,-17.95011 0.40331,-22.69188 -3.67324,-3.88307 -11.50394,-4.14308 -15.92873,-0.5289 -3.45803,2.82453 -5.3915,11.22831 -3.91894,17.03357 2.30713,9.09535 12.78773,12.43028 19.44436,6.18721 z m 18.02772,-11.65089 v -17.58615 l 8.98042,0.58326 c 6.56036,0.42608 9.51913,1.30987 10.97959,3.27962 3.05744,4.12361 2.39275,8.87652 -1.69039,12.08742 -2.02929,1.59576 -3.01665,3.1192 -2.19411,3.38539 0.82252,0.26621 2.83302,3.96395 4.46783,8.21719 1.92102,4.99797 2.35071,7.53202 1.21491,7.16443 -0.96654,-0.31279 -2.63285,-3.06924 -3.7029,-6.1254 -2.7334,-7.8069 -4.53037,-9.47162 -10.18288,-9.4335 l -4.94459,0.0334 v 7.98038 c 0,4.38922 -0.65877,7.98483 -1.46393,7.99026 -0.89544,0.006 -1.46395,-6.81947 -1.46395,-17.57625 z m 17.74937,-4.84021 c 2.71541,-5.92521 -0.47981,-9.61167 -8.28521,-9.55902 l -6.53628,0.0441 v 6.5294 6.52941 l 6.61917,-0.0446 c 5.54572,-0.0374 6.87591,-0.6049 8.20232,-3.49923 z m 14.45747,4.79737 V 274.0836 l 10.24765,-0.0691 c 5.85578,-0.0395 10.24762,0.55272 10.24762,1.38186 0,0.8061 -3.90385,1.47731 -8.78368,1.51022 l -8.78369,0.0592 v 6.457 6.45699 l 8.4177,0.46675 8.41772,0.46679 -8.41772,0.33112 -8.4177,0.33113 v 7.2549 7.25489 l 8.78369,-0.0593 c 4.87983,-0.0329 8.78368,0.58564 8.78368,1.39175 0,0.82913 -4.39184,1.48059 -10.24762,1.52009 l -10.24765,0.0691 z m 36.5987,1.20413 v -15.96076 l -5.12381,0.0346 c -2.8181,0.019 -5.12381,-0.6184 -5.12381,-1.41642 0,-0.85352 5.12381,-1.48554 12.44353,-1.53491 7.31975,-0.0494 12.44357,0.51353 12.44357,1.36705 0,0.79802 -2.63511,1.46876 -5.85579,1.49048 l -5.85579,0.0395 v 15.96076 c 0,9.6732 -0.57671,15.96466 -1.46394,15.97065 -0.88724,0.006 -1.46396,-6.2777 -1.46396,-15.9509 z m 21.95922,-1.59909 c 0,-10.64051 0.5693,-17.41558 1.46394,-17.42161 0.89463,-0.006 1.46396,6.76136 1.46396,17.40187 0,10.64052 -0.56933,17.41559 -1.46396,17.42162 -0.89464,0.006 -1.46394,-6.76136 -1.46394,-17.40188 z m 18.68842,13.0518 c -4.41951,-3.88405 -4.78093,-4.87777 -4.78093,-13.1456 0,-8.26781 0.36142,-9.2664 4.78093,-13.21007 3.53848,-3.15749 6.25456,-4.2761 10.45145,-4.3044 5.74738,-0.0388 13.60461,4.4457 11.49365,6.55993 -0.59895,0.59984 -2.29775,0.0147 -3.77515,-1.30063 -2.98773,-2.65977 -10.7056,-3.11066 -14.87816,-0.86922 -3.65444,1.96312 -6.33984,10.58156 -5.10197,16.37409 2.23782,10.47165 13.16298,14.89134 19.64795,7.94843 1.63322,-1.74852 3.47051,-2.68478 4.08289,-2.08057 0.61238,0.60423 -0.73493,2.68786 -2.99406,4.6303 -5.79308,4.98101 -12.82831,4.75716 -18.9266,-0.60226 z m 37.10273,1.95881 c -4.86216,-2.63818 -7.36801,-7.71342 -7.429,-15.04609 -0.0587,-7.06433 3.01414,-14.01545 7.18677,-16.25693 9.04713,-4.86001 21.01889,1.13675 22.77145,11.40642 2.61448,15.32014 -10.16443,26.60579 -22.52922,19.8966 z m 15.48195,-4.13644 c 4.64729,-4.35858 4.88886,-17.9501 0.40331,-22.69188 -3.67326,-3.88306 -11.50396,-4.14308 -15.92876,-0.52889 -3.45802,2.82453 -5.39148,11.22831 -3.91892,17.03357 2.30714,9.09535 12.78774,12.43028 19.44437,6.1872 z M 17.73301,219.62452 c 7.378978,-3.91344 11.022677,-9.01857 12.923623,-18.10709 1.085534,-5.19001 1.474279,-30.30912 1.183284,-76.45898 C 31.349228,47.238163 31.566598,48.750196 19.883234,41.887625 l -6.044058,-3.550157 31.840861,-0.228534 31.840861,-0.228525 0.03498,79.440881 c 0.01926,43.69248 0.634257,81.99807 1.366762,85.12354 1.735756,7.40599 5.581185,12.37166 12.64345,16.32666 l 5.718139,3.20226 -42.45447,0.24604 -42.454482,0.24604 5.357783,-2.84151 z m 125.90717,-38.81997 c 6.52206,-4.5432 15.86178,-16.20829 15.86178,-19.81095 0,-1.36148 -8.31768,-1.72766 -35.13473,-1.54678 l -35.134741,0.23697 v -16.71571 -16.7157 l 30.275071,0.18798 30.27507,0.188 23.97647,29.22063 23.97648,29.22061 -30.40344,0.20506 -30.40344,0.20506 z m 154.37687,0.81187 c 12.11073,-5.53264 13.39773,-12.4256 6.19434,-33.17669 l -4.64818,-13.39022 -40.63814,0.27408 -40.63813,0.27409 -1.691,5.08984 c -0.93007,2.7994 -2.1724,5.09308 -2.76075,5.09705 -0.58837,0.004 -9.76013,-10.69815 -20.38174,-23.78246 -15.2669,-18.8067 -19.31201,-24.715654 -19.31201,-28.210454 0,-5.518308 -3.11663,-12.971324 -6.75168,-16.145734 -1.52019,-1.327533 -5.84727,-3.583642 -9.61573,-5.013573 -5.72213,-2.171234 -8.92012,-5.148272 -19.39732,-18.057019 -6.90005,-8.50143 -12.54554,-15.808935 -12.54554,-16.238902 0,-0.429966 9.05819,-0.831514 20.12928,-0.892327 23.53921,-0.129303 36.66016,2.127274 48.32632,8.311282 4.52773,2.400049 8.68305,3.86584 9.23409,3.257306 0.55105,-0.60853 2.33959,-4.706613 3.97451,-9.106854 1.63493,-4.400239 5.71773,-15.038062 9.07291,-23.639607 l 6.10029,-15.63917229 36.21088,-0.24422858 36.21087,-0.24422851 14.21801,36.54133338 14.21801,36.541333 -0.031,55.500175 -0.0309,55.50017 -15.73743,0.0742 -15.73743,0.0743 6.02781,-2.75375 z M 285.24015,97.783394 C 284.38611,95.594546 278.46587,79.889438 272.08409,62.883149 265.70227,45.876859 260.0678,31.303083 259.563,30.496978 c -0.55717,-0.88982 -1.40049,-0.607405 -2.1465,0.718828 -1.2549,2.231018 -26.1811,69.156744 -26.1811,70.295134 0,0.34479 12.50046,0.54258 27.77878,0.43953 l 27.77879,-0.18735 z m 47.09979,42.486226 0.0923,-43.892749 9.44823,23.877429 c 18.80658,47.52765 21.56387,52.5802 32.35685,59.29149 l 6.89405,4.28688 -24.44174,0.16485 -24.44177,0.16485 0.092,-43.89275 z M 89.276178,62.105124 l 0.04367,-9.068915 5.843985,6.489991 c 9.910627,11.006172 9.976977,11.540543 1.439891,11.598123 l -7.371172,0.04972 0.04367,-9.068915 z"
       id="path237" />
  </g>
</svg>
