<?xml version="1.0" encoding="UTF-8" standalone="no"?>
<!-- Created with Inkscape (http://www.inkscape.org/) -->

<svg
   version="1.1"
   id="svg2"
   width="1648.5082"
   height="1516.8055"
   viewBox="0 0 1648.5082 1516.8055"
   sodipodi:docname="site-title.svg"
   inkscape:export-filename="../../pensieroaporetico/public/site-title.svg"
   inkscape:export-xdpi="96"
   inkscape:export-ydpi="96"
   inkscape:version="1.2.2 (b0a8486541, 2022-12-01)"
   xmlns:inkscape="http://www.inkscape.org/namespaces/inkscape"
   xmlns:sodipodi="http://sodipodi.sourceforge.net/DTD/sodipodi-0.dtd"
   xmlns="http://www.w3.org/2000/svg"
   xmlns:svg="http://www.w3.org/2000/svg">
  <defs
     id="defs6" />
  <sodipodi:namedview
     id="namedview4"
     pagecolor="#ffffff"
     bordercolor="#000000"
     borderopacity="0.25"
     inkscape:showpageshadow="2"
     inkscape:pageopacity="0.0"
     inkscape:pagecheckerboard="0"
     inkscape:deskcolor="#d1d1d1"
     showgrid="false"
     inkscape:zoom="0.2"
     inkscape:cx="840"
     inkscape:cy="1015"
     inkscape:window-width="1280"
     inkscape:window-height="715"
     inkscape:window-x="0"
     inkscape:window-y="24"
     inkscape:window-maximized="1"
     inkscape:current-layer="g8" />
  <g
     inkscape:groupmode="layer"
     inkscape:label="Image"
     id="g8"
     transform="translate(366.75319,-91.638064)">
    <path
       style="opacity:0.99;fill:#916f6f;fill-opacity:1;stroke-width:3.44101"
       d="m 434.78561,1529.287 c -7.50131,-3.4036 -14.83151,-9.7098 -16.28922,-14.0139 -6.37116,-18.812 -9.56258,-111.5441 -8.08893,-235.0398 l 1.59021,-133.2615 -31.04616,-5.5092 C 292.74402,1125.8097 155.74521,1077.9033 -31.702574,997.1639 -157.36436,943.03762 -190.67059,912.85832 -187.83231,855.69285 c 1.59122,-32.0443 11.69932,-56.70253 34.27258,-83.60449 28.33524,-33.76894 46.90956,-47.71341 104.379616,-78.3619 C 65.2561,632.69823 229.99987,586.60535 399.42864,568.2124 c 53.12995,-5.76771 385.62796,-5.86609 490.03395,-0.14487 l 24.63033,1.34967 0.58467,-19.81185 C 917.58323,451.16158 882.32867,374.72093 809.6605,321.90239 727.08783,261.88486 606.34786,239.7686 455.81436,257.08744 332.73351,271.24792 199.16325,324.89742 144.40837,382.16606 c -25.82066,27.00606 -30.62955,46.29849 -15.29389,61.35665 5.79193,5.68716 15.35921,12.03538 21.26059,14.10725 13.34891,4.68646 13.67492,14.45186 0.71188,21.32438 -11.09648,5.88295 -12.71161,6.00725 -32.00654,2.46355 C 87.889132,475.68938 61.754237,447.09456 62.749349,419.78476 65.402447,346.975 226.61181,254.59486 406.87148,222.58739 c 140.70134,-24.98337 272.49394,-18.0606 378.273,19.86988 45.46853,16.30415 102.18541,47.49373 131.52101,72.32548 72.42958,61.30959 109.26841,148.49693 105.69661,250.15484 -2.1472,61.11585 -17.3944,68.98073 -114.89463,59.26623 -27.17755,-2.70786 -79.29996,-3.31513 -230.23107,-2.68242 -184.81789,0.7747 -204.99673,1.41795 -273.87723,8.72994 -22.23987,2.36091 -94.75767,16.7205 -130.65682,25.87203 -19.05092,4.8565 -35.54263,8.83393 -36.64826,8.83872 -1.10568,0.005 -13.72473,4.02624 -28.04235,8.93656 -14.31759,4.9103 -27.59392,8.9346 -29.50295,8.94288 -8.24445,0.0358 -115.116915,45.63765 -151.227351,64.52797 -62.841994,32.87426 -94.579367,70.12173 -96.950885,113.78309 -1.928246,35.49986 22.497835,52.67441 141.690721,99.62614 136.043245,53.58947 291.600775,105.19997 339.807855,112.74077 l 11.2902,1.7661 1.72915,-137.43954 1.72911,-137.43967 10.55935,-3.95649 c 21.00377,-7.86985 41.99882,-3.01071 47.50674,10.99504 2.94064,7.47748 10.12331,144.56062 11.67632,222.84486 0.60453,30.4723 1.72081,55.7688 2.4806,56.2143 2.32884,1.3655 116.38278,0.019 133.95116,-1.5804 237.42945,-21.6271 384.31574,-63.9423 445.49304,-128.33834 15.0551,-15.84721 16.1118,-18.46023 15.1231,-37.40436 -0.8848,-16.95909 -3.7408,-23.47863 -17.0687,-38.96423 -32.3561,-37.59458 -73.9222,-60.18244 -144.51406,-78.53186 -50.28669,-13.07129 -103.51463,-19.61101 -187.91899,-23.08824 -76.8592,-3.16636 -203.67547,-3.43405 -251.55798,-0.53102 -33.35928,2.02252 -36.89611,1.78113 -45.97748,-3.13804 -7.48724,-4.05566 -9.40911,-7.79562 -8.04269,-15.65106 3.61114,-20.7599 34.14236,-24.77047 194.05977,-25.49167 152.69246,-0.6887 243.36476,5.23998 319.68284,20.90233 145.47159,29.85431 243.47829,99.80236 240.94299,171.96275 -1.9335,55.02893 -69.6609,109.37444 -189.592,152.13134 -104.87059,37.3875 -234.71922,61.1178 -394.09684,72.022 -31.09815,2.1278 -69.00685,3.9325 -84.24152,4.0105 l -27.69946,0.1425 1.05479,66.1085 c 0.58018,36.3598 1.62022,71.2062 2.31124,77.4367 0.69107,6.2307 2.0684,24.3585 3.06084,40.2844 4.37626,70.2291 12.37754,142.715 16.3385,148.0149 7.0314,9.4084 4.30589,21.2436 -7.36413,31.9777 -18.79326,17.2862 -52.89151,21.8827 -77.95943,10.5093 z"
       id="path596" />
    <ellipse
       style="opacity:0.97;fill:#916f6f;fill-opacity:1;stroke-width:5.43818"
       id="path650"
       cx="749.4281"
       cy="391.31375"
       rx="57.124454"
       ry="48.827747" />
  </g>
</svg>
